<svg width="23" height="26" viewBox="0 0 23 26" fill="none" xmlns="http://www.w3.org/2000/svg">
<path d="M18.543 13.7401C18.5305 11.6089 19.4961 10.0027 21.4461 8.81841C20.3555 7.25597 18.7055 6.39663 16.5306 6.23101C14.4713 6.06851 12.2183 7.43096 11.3933 7.43096C10.5215 7.43096 8.5278 6.28726 6.95912 6.28726C3.72174 6.33725 0.28125 8.8684 0.28125 14.0182C0.28125 15.54 0.559364 17.1118 1.11559 18.7305C1.85931 20.8617 4.54046 26.0834 7.33722 25.999C8.79967 25.9646 9.834 24.9615 11.7371 24.9615C13.5839 24.9615 14.5401 25.999 16.1713 25.999C18.993 25.9584 21.4179 21.2117 22.1241 19.0743C18.3399 17.29 18.543 13.8495 18.543 13.7401ZM15.2588 4.20921C16.8431 2.32803 16.6994 0.615601 16.6525 0C15.2525 0.0812468 13.6339 0.953088 12.712 2.02492C11.6964 3.17488 11.0996 4.5967 11.2277 6.19976C12.7401 6.31538 14.1213 5.53728 15.2588 4.20921Z" fill="white"/>
</svg>
