<svg width="188" height="58" viewBox="0 0 188 58" fill="none" xmlns="http://www.w3.org/2000/svg">
<g filter="url(#filter0_b_6316_6556)">
<rect x="0.541016" width="186.645" height="58" rx="16" fill="#121212"/>
<path d="M48.408 44.6359C46.5572 46.4301 44.5363 46.1468 42.591 45.2969C40.5324 44.4281 38.6437 44.3904 36.4718 45.2969C33.7521 46.4679 32.3167 46.1279 30.6925 44.6359C21.4759 35.136 22.8357 20.6689 33.2988 20.1401C35.8485 20.2723 37.6238 21.5377 39.1159 21.651C41.3445 21.1977 43.4787 19.8946 45.8584 20.0645C48.7102 20.2912 50.8633 21.4244 52.2798 23.4641C46.3872 26.9959 47.7848 34.7582 53.1863 36.9302C52.1098 39.7632 50.7122 42.5773 48.3892 44.6548L48.408 44.6359ZM38.927 20.0268C38.6437 15.8151 42.0622 12.34 45.9906 12C46.5383 16.8727 41.5711 20.4989 38.927 20.0268Z" fill="white"/>
<path d="M69.2983 23L72.9663 13.2H74.8843L78.5383 23H76.8163L75.8923 20.578H71.8743L70.9643 23H69.2983ZM72.3223 19.206H75.4443L73.8763 14.936L72.3223 19.206ZM77.9776 15.832H79.6016L81.5756 21.376L83.5216 15.832H85.1176L82.4716 23H80.6236L77.9776 15.832ZM92.4282 21.684V23H91.6302C91.1542 23 90.8182 22.902 90.6222 22.706C90.4122 22.51 90.3142 22.23 90.3142 21.852C89.7682 22.678 88.9842 23.084 87.9482 23.084C87.1362 23.084 86.4922 22.902 86.0162 22.524C85.5262 22.16 85.2882 21.642 85.2882 20.984C85.2882 20.256 85.5402 19.682 86.0722 19.29C86.5902 18.898 87.3462 18.688 88.3542 18.688H90.1602V18.254C90.1602 17.862 90.0202 17.54 89.7402 17.316C89.4602 17.092 89.0682 16.966 88.5782 16.966C88.1302 16.966 87.7662 17.064 87.4862 17.26C87.2062 17.456 87.0382 17.708 86.9822 18.016H85.4982C85.5682 17.302 85.8902 16.742 86.4502 16.35C87.0102 15.958 87.7382 15.748 88.6482 15.748C89.6002 15.748 90.3422 15.972 90.8742 16.42C91.3922 16.868 91.6582 17.512 91.6582 18.352V21.18C91.6582 21.516 91.8122 21.684 92.1342 21.684H92.4282ZM90.1602 19.808H88.2842C87.8082 19.808 87.4582 19.906 87.2062 20.088C86.9542 20.27 86.8282 20.536 86.8282 20.886C86.8282 21.194 86.9402 21.446 87.1782 21.628C87.4162 21.824 87.7382 21.908 88.1582 21.908C88.7742 21.908 89.2642 21.74 89.6142 21.404C89.9642 21.068 90.1462 20.62 90.1602 20.06V19.808ZM94.6518 13.228C94.8198 13.396 94.9178 13.62 94.9178 13.872C94.9178 14.138 94.8198 14.362 94.6518 14.53C94.4698 14.698 94.2458 14.782 93.9938 14.782C93.7278 14.782 93.5038 14.698 93.3358 14.53C93.1538 14.362 93.0698 14.138 93.0698 13.872C93.0698 13.62 93.1538 13.396 93.3358 13.228C93.5038 13.06 93.7278 12.962 93.9938 12.962C94.2458 12.962 94.4698 13.06 94.6518 13.228ZM93.2378 15.832H94.7498V23H93.2378V15.832ZM96.218 13.2H97.73V23H96.218V13.2ZM106.058 21.684V23H105.26C104.784 23 104.448 22.902 104.252 22.706C104.042 22.51 103.944 22.23 103.944 21.852C103.398 22.678 102.614 23.084 101.578 23.084C100.766 23.084 100.122 22.902 99.6461 22.524C99.1561 22.16 98.9181 21.642 98.9181 20.984C98.9181 20.256 99.1701 19.682 99.7021 19.29C100.22 18.898 100.976 18.688 101.984 18.688H103.79V18.254C103.79 17.862 103.65 17.54 103.37 17.316C103.09 17.092 102.698 16.966 102.208 16.966C101.76 16.966 101.396 17.064 101.116 17.26C100.836 17.456 100.668 17.708 100.612 18.016H99.1281C99.1981 17.302 99.5201 16.742 100.08 16.35C100.64 15.958 101.368 15.748 102.278 15.748C103.23 15.748 103.972 15.972 104.504 16.42C105.022 16.868 105.288 17.512 105.288 18.352V21.18C105.288 21.516 105.442 21.684 105.764 21.684H106.058ZM103.79 19.808H101.914C101.438 19.808 101.088 19.906 100.836 20.088C100.584 20.27 100.458 20.536 100.458 20.886C100.458 21.194 100.57 21.446 100.808 21.628C101.046 21.824 101.368 21.908 101.788 21.908C102.404 21.908 102.894 21.74 103.244 21.404C103.594 21.068 103.776 20.62 103.79 20.06V19.808ZM112.454 16.196C112.958 16.49 113.364 16.91 113.658 17.456C113.938 18.016 114.092 18.66 114.092 19.416C114.092 20.144 113.938 20.774 113.658 21.334C113.364 21.894 112.958 22.314 112.454 22.622C111.936 22.93 111.348 23.084 110.704 23.084C110.172 23.084 109.71 22.986 109.318 22.79C108.926 22.594 108.604 22.314 108.366 21.964L108.184 23H106.868V13.2H108.38V16.896C108.94 16.14 109.724 15.748 110.704 15.748C111.348 15.748 111.936 15.902 112.454 16.196ZM111.964 21.152C112.356 20.704 112.552 20.13 112.552 19.416C112.552 18.716 112.356 18.156 111.964 17.708C111.572 17.26 111.068 17.036 110.452 17.036C109.822 17.036 109.318 17.26 108.94 17.694C108.548 18.142 108.366 18.702 108.366 19.402C108.366 20.116 108.548 20.69 108.94 21.138C109.318 21.586 109.822 21.81 110.452 21.81C111.068 21.81 111.572 21.6 111.964 21.152ZM115.289 13.2H116.801V23H115.289V13.2ZM118.437 17.498C118.731 16.938 119.137 16.518 119.669 16.21C120.201 15.902 120.803 15.748 121.489 15.748C122.175 15.748 122.777 15.888 123.309 16.168C123.841 16.448 124.247 16.854 124.555 17.358C124.863 17.876 125.017 18.478 125.031 19.164C125.031 19.36 125.017 19.542 124.989 19.738H119.585V19.822C119.613 20.452 119.809 20.942 120.173 21.306C120.523 21.67 120.999 21.852 121.587 21.852C122.049 21.852 122.441 21.754 122.763 21.53C123.071 21.306 123.281 20.998 123.393 20.592H124.905C124.765 21.32 124.415 21.922 123.841 22.384C123.267 22.86 122.553 23.084 121.699 23.084C120.943 23.084 120.299 22.944 119.739 22.636C119.179 22.328 118.759 21.908 118.451 21.348C118.143 20.802 118.003 20.158 118.003 19.43C118.003 18.702 118.143 18.058 118.437 17.498ZM123.491 18.632C123.421 18.114 123.211 17.708 122.861 17.414C122.511 17.12 122.077 16.966 121.545 16.966C121.041 16.966 120.621 17.12 120.257 17.428C119.893 17.736 119.697 18.128 119.641 18.632H123.491ZM131.278 22.636C130.718 22.328 130.298 21.908 129.99 21.348C129.682 20.788 129.542 20.144 129.542 19.416C129.542 18.702 129.682 18.072 129.99 17.512C130.298 16.952 130.718 16.518 131.278 16.21C131.838 15.902 132.468 15.748 133.196 15.748C133.91 15.748 134.54 15.902 135.1 16.21C135.66 16.518 136.08 16.952 136.388 17.512C136.696 18.072 136.85 18.702 136.85 19.416C136.85 20.144 136.696 20.788 136.388 21.348C136.08 21.908 135.66 22.328 135.1 22.636C134.54 22.944 133.91 23.084 133.196 23.084C132.468 23.084 131.838 22.944 131.278 22.636ZM134.722 21.138C135.114 20.69 135.31 20.116 135.31 19.416C135.31 18.716 135.114 18.156 134.722 17.708C134.33 17.26 133.826 17.036 133.196 17.036C132.552 17.036 132.048 17.26 131.67 17.708C131.278 18.156 131.096 18.716 131.096 19.416C131.096 20.116 131.278 20.69 131.67 21.138C132.048 21.586 132.552 21.796 133.196 21.796C133.826 21.796 134.33 21.586 134.722 21.138ZM143.904 16.532C144.436 17.064 144.716 17.904 144.716 19.052V23H143.19V19.136C143.19 18.464 143.036 17.946 142.756 17.582C142.462 17.232 142.042 17.05 141.482 17.05C140.88 17.05 140.404 17.26 140.068 17.68C139.732 18.1 139.564 18.66 139.564 19.388V23H138.052V15.832H139.368L139.536 16.77C140.068 16.098 140.838 15.748 141.832 15.748C142.672 15.748 143.372 16.014 143.904 16.532Z" fill="white"/>
<path d="M69.2663 45L74.3863 31H77.9863L83.0663 45H79.8463L78.7663 41.94H73.4463L72.3663 45H69.2663ZM74.2463 39.52H77.9463L76.0863 34.2L74.2463 39.52ZM92.4711 35.26C93.1911 35.7 93.7511 36.3 94.1511 37.1C94.5511 37.9 94.7711 38.84 94.7711 39.88C94.7711 40.94 94.5511 41.86 94.1511 42.64C93.7511 43.44 93.1911 44.04 92.4711 44.48C91.7511 44.92 90.9311 45.12 90.0111 45.12C88.6911 45.12 87.6511 44.66 86.9111 43.7V49H84.0911V34.72H86.5511L86.8311 36.14C87.1711 35.68 87.6111 35.3 88.1511 35.02C88.6911 34.74 89.3111 34.6 90.0311 34.6C90.9511 34.6 91.7511 34.82 92.4711 35.26ZM91.2111 42C91.6711 41.44 91.9111 40.72 91.9111 39.84C91.9111 38.96 91.6711 38.26 91.2111 37.72C90.7311 37.18 90.1311 36.9 89.3711 36.9C88.6111 36.9 87.9911 37.18 87.5511 37.72C87.0911 38.26 86.8711 38.96 86.8711 39.84C86.8711 40.74 87.0911 41.46 87.5511 42C87.9911 42.56 88.6111 42.82 89.3711 42.82C90.1311 42.82 90.7311 42.56 91.2111 42ZM104.677 35.26C105.397 35.7 105.957 36.3 106.357 37.1C106.757 37.9 106.977 38.84 106.977 39.88C106.977 40.94 106.757 41.86 106.357 42.64C105.957 43.44 105.397 44.04 104.677 44.48C103.957 44.92 103.137 45.12 102.217 45.12C100.897 45.12 99.8572 44.66 99.1172 43.7V49H96.2972V34.72H98.7572L99.0372 36.14C99.3772 35.68 99.8172 35.3 100.357 35.02C100.897 34.74 101.517 34.6 102.237 34.6C103.157 34.6 103.957 34.82 104.677 35.26ZM103.417 42C103.877 41.44 104.117 40.72 104.117 39.84C104.117 38.96 103.877 38.26 103.417 37.72C102.937 37.18 102.337 36.9 101.577 36.9C100.817 36.9 100.197 37.18 99.7572 37.72C99.2972 38.26 99.0772 38.96 99.0772 39.84C99.0772 40.74 99.2972 41.46 99.7572 42C100.197 42.56 100.817 42.82 101.577 42.82C102.337 42.82 102.937 42.56 103.417 42ZM116.024 40.44C116.064 41.14 116.344 41.7 116.864 42.12C117.384 42.54 118.064 42.74 118.924 42.74C119.624 42.74 120.204 42.6 120.644 42.3C121.084 42 121.324 41.58 121.324 41.04C121.324 40.68 121.184 40.38 120.944 40.16C120.704 39.94 120.344 39.76 119.904 39.64C119.464 39.52 118.764 39.36 117.844 39.16C116.924 39 116.144 38.78 115.524 38.5C114.884 38.22 114.384 37.82 113.984 37.28C113.584 36.74 113.404 36.02 113.404 35.12C113.404 34.32 113.624 33.58 114.064 32.94C114.504 32.3 115.124 31.8 115.924 31.44C116.724 31.08 117.624 30.88 118.624 30.88C119.644 30.88 120.564 31.08 121.384 31.46C122.204 31.84 122.844 32.36 123.324 33.02C123.804 33.7 124.044 34.44 124.064 35.28H121.124C121.044 34.68 120.804 34.2 120.364 33.84C119.924 33.48 119.344 33.28 118.624 33.28C117.944 33.28 117.424 33.42 117.024 33.7C116.624 33.98 116.424 34.38 116.424 34.9C116.424 35.28 116.544 35.58 116.784 35.78C117.024 35.98 117.364 36.16 117.804 36.28C118.244 36.4 118.924 36.56 119.844 36.72C120.764 36.9 121.564 37.12 122.204 37.38C122.844 37.64 123.344 38.04 123.744 38.56C124.144 39.08 124.344 39.78 124.344 40.66C124.344 41.52 124.104 42.28 123.644 42.96C123.164 43.64 122.524 44.16 121.684 44.54C120.844 44.94 119.924 45.12 118.884 45.12C117.764 45.12 116.764 44.92 115.884 44.52C115.004 44.12 114.324 43.54 113.844 42.82C113.344 42.1 113.084 41.3 113.084 40.4L116.024 40.44ZM126.544 37.1H124.844V34.72H126.544V31.84H129.364V34.72H131.704V37.1H129.364V41.6C129.364 41.96 129.424 42.22 129.584 42.38C129.744 42.54 130.004 42.62 130.364 42.62H131.824V45H129.484C127.524 45 126.544 44.02 126.544 42.06V37.1ZM134.977 44.48C134.157 44.04 133.517 43.42 133.077 42.62C132.637 41.82 132.417 40.9 132.417 39.86C132.417 38.82 132.637 37.9 133.077 37.1C133.517 36.3 134.157 35.7 134.977 35.26C135.797 34.82 136.757 34.6 137.837 34.6C138.917 34.6 139.857 34.82 140.677 35.26C141.497 35.7 142.137 36.3 142.577 37.1C143.017 37.9 143.257 38.82 143.257 39.86C143.257 40.92 143.017 41.84 142.577 42.64C142.137 43.44 141.497 44.04 140.677 44.48C139.857 44.92 138.917 45.12 137.837 45.12C136.757 45.12 135.797 44.92 134.977 44.48ZM139.697 42C140.157 41.46 140.397 40.74 140.397 39.86C140.397 38.98 140.157 38.28 139.697 37.72C139.237 37.18 138.617 36.9 137.837 36.9C137.057 36.9 136.437 37.18 135.977 37.72C135.517 38.28 135.297 38.98 135.297 39.86C135.297 40.74 135.517 41.46 135.977 42C136.437 42.56 137.057 42.82 137.837 42.82C138.617 42.82 139.237 42.56 139.697 42ZM151.029 34.72V37.28H149.909C149.109 37.28 148.509 37.52 148.149 38C147.769 38.48 147.589 39.14 147.589 39.96V45H144.769V34.72H147.329L147.589 36.26C147.889 35.76 148.269 35.38 148.729 35.12C149.169 34.86 149.789 34.72 150.549 34.72H151.029ZM152.157 37.1C152.597 36.3 153.197 35.7 153.977 35.26C154.757 34.82 155.657 34.6 156.697 34.6C157.737 34.6 158.637 34.82 159.437 35.22C160.237 35.62 160.857 36.2 161.297 36.94C161.737 37.68 161.977 38.54 161.997 39.54C161.997 39.9 161.957 40.22 161.917 40.5H154.457V40.58C154.517 41.34 154.757 41.92 155.177 42.34C155.577 42.78 156.157 42.98 156.877 42.98C157.437 42.98 157.917 42.86 158.297 42.62C158.677 42.38 158.937 42 159.057 41.52H161.837C161.717 42.2 161.457 42.82 161.057 43.36C160.637 43.92 160.097 44.34 159.417 44.66C158.737 44.98 157.957 45.12 157.077 45.12C155.917 45.12 154.937 44.92 154.097 44.48C153.257 44.06 152.617 43.46 152.177 42.66C151.737 41.86 151.517 40.94 151.517 39.88C151.517 38.82 151.717 37.9 152.157 37.1ZM159.177 38.66C159.077 38.04 158.817 37.56 158.397 37.22C157.977 36.88 157.457 36.7 156.817 36.7C156.197 36.7 155.677 36.88 155.257 37.24C154.837 37.6 154.597 38.06 154.517 38.66H159.177Z" fill="white"/>
</g>
<defs>
<filter id="filter0_b_6316_6556" x="-99.459" y="-100" width="386.645" height="258" filterUnits="userSpaceOnUse" color-interpolation-filters="sRGB">
<feFlood flood-opacity="0" result="BackgroundImageFix"/>
<feGaussianBlur in="BackgroundImageFix" stdDeviation="50"/>
<feComposite in2="SourceAlpha" operator="in" result="effect1_backgroundBlur_6316_6556"/>
<feBlend mode="normal" in="SourceGraphic" in2="effect1_backgroundBlur_6316_6556" result="shape"/>
</filter>
</defs>
</svg>
