<svg width="48" height="48" viewBox="0 0 48 48" fill="none" xmlns="http://www.w3.org/2000/svg">
<rect x="0.5" y="0.5" width="47" height="47" rx="23.5" stroke="#D9D9D9"/>
<path fill-rule="evenodd" clip-rule="evenodd" d="M25.3052 18.1947C25.1805 18.3195 25.1105 18.4888 25.1105 18.6652C25.1105 18.8416 25.1805 19.0108 25.3052 19.1357L29.4952 23.3256H16.8987C16.7221 23.3256 16.5527 23.3958 16.4279 23.5206C16.303 23.6455 16.2329 23.8148 16.2329 23.9914C16.2329 24.168 16.303 24.3373 16.4279 24.4622C16.5527 24.587 16.7221 24.6572 16.8987 24.6572H29.4952L25.3052 28.8471C25.2398 28.9081 25.1873 28.9816 25.1509 29.0633C25.1145 29.1449 25.095 29.2331 25.0934 29.3225C25.0918 29.4119 25.1083 29.5007 25.1418 29.5836C25.1752 29.6665 25.2251 29.7418 25.2883 29.805C25.3515 29.8682 25.4268 29.9181 25.5097 29.9515C25.5926 29.985 25.6814 30.0015 25.7708 29.9999C25.8602 29.9983 25.9484 29.9788 26.03 29.9424C26.1117 29.906 26.1852 29.8535 26.2462 29.7881L31.5724 24.4619C31.6971 24.3371 31.7671 24.1678 31.7671 23.9914C31.7671 23.815 31.6971 23.6458 31.5724 23.5209L26.2462 18.1947C26.1213 18.07 25.9521 18 25.7757 18C25.5993 18 25.43 18.07 25.3052 18.1947Z" fill="#121212"/>
</svg>
