<svg width="48" height="48" viewBox="0 0 48 48" fill="none" xmlns="http://www.w3.org/2000/svg">
<rect x="0.5" y="0.5" width="47" height="47" rx="23.5" stroke="#D9D9D9"/>
<path fill-rule="evenodd" clip-rule="evenodd" d="M22.6948 18.1947C22.8195 18.3195 22.8895 18.4888 22.8895 18.6652C22.8895 18.8416 22.8195 19.0108 22.6948 19.1357L18.5048 23.3256H31.1013C31.2779 23.3256 31.4473 23.3958 31.5721 23.5206C31.697 23.6455 31.7671 23.8148 31.7671 23.9914C31.7671 24.168 31.697 24.3373 31.5721 24.4622C31.4473 24.587 31.2779 24.6572 31.1013 24.6572H18.5048L22.6948 28.8471C22.7602 28.9081 22.8127 28.9816 22.8491 29.0633C22.8855 29.1449 22.905 29.2331 22.9066 29.3225C22.9082 29.4119 22.8917 29.5007 22.8582 29.5836C22.8248 29.6665 22.7749 29.7418 22.7117 29.805C22.6485 29.8682 22.5732 29.9181 22.4903 29.9515C22.4074 29.985 22.3186 30.0015 22.2292 29.9999C22.1398 29.9983 22.0516 29.9788 21.97 29.9424C21.8883 29.906 21.8148 29.8535 21.7538 29.7881L16.4276 24.4619C16.3029 24.3371 16.2329 24.1678 16.2329 23.9914C16.2329 23.815 16.3029 23.6458 16.4276 23.5209L21.7538 18.1947C21.8787 18.07 22.0479 18 22.2243 18C22.4007 18 22.57 18.07 22.6948 18.1947Z" fill="#121212"/>
</svg>
