<svg width="29" height="28" viewBox="0 0 29 28" fill="none" xmlns="http://www.w3.org/2000/svg">
<path fill-rule="evenodd" clip-rule="evenodd" d="M6.82457 0.439385C12.1099 -0.146462 17.4437 -0.146462 22.729 0.439385C25.6164 0.761731 27.9443 3.03487 28.2833 5.93294C28.9101 11.2922 28.9101 16.7062 28.2833 22.0654C27.9443 24.9635 25.6164 27.2366 22.7305 27.5605C17.4447 28.1465 12.1104 28.1465 6.82457 27.5605C3.93714 27.2366 1.60926 24.9635 1.27019 22.0669C0.643334 16.7072 0.643334 11.2927 1.27019 5.93294C1.60926 3.03487 3.93714 0.761731 6.82457 0.439385ZM22.3793 4.8762C21.976 4.8762 21.5892 5.03639 21.3041 5.32154C21.019 5.60669 20.8588 5.99343 20.8588 6.39669C20.8588 6.79995 21.019 7.1867 21.3041 7.47185C21.5892 7.757 21.976 7.91719 22.3793 7.91719C22.7825 7.91719 23.1693 7.757 23.4544 7.47185C23.7396 7.1867 23.8998 6.79995 23.8998 6.39669C23.8998 5.99343 23.7396 5.60669 23.4544 5.32154C23.1693 5.03639 22.7825 4.8762 22.3793 4.8762ZM7.55441 13.9992C7.55441 12.0837 8.31533 10.2467 9.66979 8.8922C11.0242 7.53774 12.8613 6.77682 14.7768 6.77682C16.6923 6.77682 18.5293 7.53774 19.8837 8.8922C21.2382 10.2467 21.9991 12.0837 21.9991 13.9992C21.9991 15.9147 21.2382 17.7517 19.8837 19.1062C18.5293 20.4606 16.6923 21.2215 14.7768 21.2215C12.8613 21.2215 11.0242 20.4606 9.66979 19.1062C8.31533 17.7517 7.55441 15.9147 7.55441 13.9992Z" fill="white"/>
</svg>
