<svg width="28" height="28" viewBox="0 0 28 28" fill="none" xmlns="http://www.w3.org/2000/svg">
<path d="M27.1557 15.032C27.0169 14.766 26.8608 14.5174 26.6816 14.2804C26.6237 14.1995 26.5544 14.1127 26.4734 14.0087L21.7094 9.24467C21.2238 8.75902 20.5474 8.53354 19.8478 8.64339C19.391 8.71277 18.9748 8.94981 18.6452 9.27936L18.148 9.77657C17.9052 10.0194 17.726 10.2911 17.6219 10.5802C17.3328 11.3665 17.5294 12.2511 18.1133 12.8408L21.4319 16.1594C22.2124 16.9399 22.646 17.9864 22.646 19.0906C22.646 20.1949 22.2124 21.2414 21.4319 22.0219C20.8191 22.6289 19.8593 22.7099 19.154 22.2069C18.2925 21.5883 17.2634 20.8309 16.1881 19.9521C15.9799 19.7786 15.8065 19.5821 15.6273 19.4086L15.344 19.1369C14.8468 18.6628 14.1645 18.4489 13.465 18.5761C13.0256 18.657 12.6266 18.8883 12.3087 19.2063L11.8057 19.7093C10.7708 20.7499 8.73566 23.2187 7.63139 22.9238C7.63139 22.9238 7.62561 22.9238 7.61404 22.9238L7.5967 22.918C7.10527 22.7099 6.67743 22.415 6.29585 22.0392C5.50956 21.2529 5.08173 20.2123 5.08173 19.1022C5.08173 17.9921 5.49222 17.0729 6.34211 16.1189L19.2754 4.22629C20.108 3.39375 20.108 2.03509 19.2754 1.19677L18.7319 0.6533C18.5007 0.422039 18.2405 0.248593 17.9572 0.144525C17.7086 0.0520201 17.4542 0.00576782 17.1941 0.00576782C16.6217 0.00576782 16.084 0.231248 15.6793 0.630174L2.70552 12.5575L2.67083 12.5922C2.67083 12.5922 2.63036 12.6327 2.61879 12.6442C0.907458 14.5348 -0.000244141 16.7607 -0.000244141 19.0849C-0.000244141 21.5536 0.959491 23.872 2.70552 25.618C3.54962 26.4621 4.53248 27.127 5.62519 27.5895C6.26116 27.8612 6.9376 27.9942 7.63139 27.9942C9.50461 27.9942 11.2391 26.9882 12.7076 25.8088C13.3956 25.2538 14.3784 25.2538 15.0607 25.8088C16.5697 27.0229 18.2694 27.9942 20.1253 27.9942C20.8075 27.9942 21.4724 27.8612 22.1026 27.5953C23.1201 27.1617 24.0741 26.5199 25.0165 25.6353C26.8955 23.8604 27.7511 21.6808 27.7511 18.5356C27.7511 16.2461 27.41 15.6217 27.1557 15.0378V15.032Z" fill="white"/>
</svg>
