<svg width="189" height="58" viewBox="0 0 189 58" fill="none" xmlns="http://www.w3.org/2000/svg">
<g filter="url(#filter0_b_6316_6561)">
<rect x="0.186279" y="0.000183105" width="188.814" height="57.9997" rx="16" fill="#121212"/>
<path d="M38.5762 28.2391L24.3137 43.1819C24.4739 43.7495 24.7617 44.273 25.1552 44.7123C25.5487 45.1516 26.0374 45.4952 26.584 45.7167C27.1306 45.9381 27.7206 46.0317 28.3089 45.9903C28.8972 45.9488 29.4682 45.7734 29.9784 45.4774L46.0264 36.3375L38.5762 28.2391Z" fill="#EA4335"/>
<path d="M52.9982 25.6996L46.0586 21.7247L38.2471 28.5795L46.0903 36.3166L52.9772 32.3843C53.5873 32.0648 54.0983 31.5844 54.4548 30.9953C54.8114 30.4061 54.9999 29.7305 54.9999 29.0419C54.9999 28.3532 54.8114 27.6777 54.4548 27.0885C54.0983 26.4993 53.5873 26.019 52.9772 25.6995L52.9982 25.6996Z" fill="#FBBC04"/>
<path d="M24.3139 14.8277C24.2277 15.1464 24.1848 15.4753 24.1863 15.8055V42.2049C24.1872 42.5349 24.23 42.8635 24.3139 43.1827L39.0653 28.6226L24.3139 14.8277Z" fill="#4285F4"/>
<path d="M38.6825 29.0047L46.0583 21.7246L30.0316 12.5422C29.4286 12.1891 28.7428 12.0021 28.044 12.0002C26.3099 11.9968 24.7853 13.1478 24.3137 14.8166L38.6825 29.0047Z" fill="#34A853"/>
<path d="M71.1118 23L74.7798 13.2H76.6978L80.3518 23H78.6298L77.7058 20.578H73.6878L72.7778 23H71.1118ZM74.1358 19.206H77.2578L75.6898 14.936L74.1358 19.206ZM79.7911 15.832H81.4151L83.3891 21.376L85.3351 15.832H86.9311L84.2851 23H82.4371L79.7911 15.832ZM94.2417 21.684V23H93.4437C92.9677 23 92.6317 22.902 92.4357 22.706C92.2257 22.51 92.1277 22.23 92.1277 21.852C91.5817 22.678 90.7977 23.084 89.7617 23.084C88.9497 23.084 88.3057 22.902 87.8297 22.524C87.3397 22.16 87.1017 21.642 87.1017 20.984C87.1017 20.256 87.3537 19.682 87.8857 19.29C88.4037 18.898 89.1597 18.688 90.1677 18.688H91.9737V18.254C91.9737 17.862 91.8337 17.54 91.5537 17.316C91.2737 17.092 90.8817 16.966 90.3917 16.966C89.9437 16.966 89.5797 17.064 89.2997 17.26C89.0197 17.456 88.8517 17.708 88.7957 18.016H87.3117C87.3817 17.302 87.7037 16.742 88.2637 16.35C88.8237 15.958 89.5517 15.748 90.4617 15.748C91.4137 15.748 92.1557 15.972 92.6877 16.42C93.2057 16.868 93.4717 17.512 93.4717 18.352V21.18C93.4717 21.516 93.6257 21.684 93.9477 21.684H94.2417ZM91.9737 19.808H90.0977C89.6217 19.808 89.2717 19.906 89.0197 20.088C88.7677 20.27 88.6417 20.536 88.6417 20.886C88.6417 21.194 88.7537 21.446 88.9917 21.628C89.2297 21.824 89.5517 21.908 89.9717 21.908C90.5877 21.908 91.0777 21.74 91.4277 21.404C91.7777 21.068 91.9597 20.62 91.9737 20.06V19.808ZM96.4653 13.228C96.6333 13.396 96.7313 13.62 96.7313 13.872C96.7313 14.138 96.6333 14.362 96.4653 14.53C96.2833 14.698 96.0593 14.782 95.8073 14.782C95.5413 14.782 95.3173 14.698 95.1493 14.53C94.9673 14.362 94.8833 14.138 94.8833 13.872C94.8833 13.62 94.9673 13.396 95.1493 13.228C95.3173 13.06 95.5413 12.962 95.8073 12.962C96.0593 12.962 96.2833 13.06 96.4653 13.228ZM95.0513 15.832H96.5633V23H95.0513V15.832ZM98.0315 13.2H99.5435V23H98.0315V13.2ZM107.872 21.684V23H107.074C106.598 23 106.262 22.902 106.066 22.706C105.856 22.51 105.758 22.23 105.758 21.852C105.212 22.678 104.428 23.084 103.392 23.084C102.58 23.084 101.936 22.902 101.46 22.524C100.97 22.16 100.732 21.642 100.732 20.984C100.732 20.256 100.984 19.682 101.516 19.29C102.034 18.898 102.79 18.688 103.798 18.688H105.604V18.254C105.604 17.862 105.464 17.54 105.184 17.316C104.904 17.092 104.512 16.966 104.022 16.966C103.574 16.966 103.21 17.064 102.93 17.26C102.65 17.456 102.482 17.708 102.426 18.016H100.942C101.012 17.302 101.334 16.742 101.894 16.35C102.454 15.958 103.182 15.748 104.092 15.748C105.044 15.748 105.786 15.972 106.318 16.42C106.836 16.868 107.102 17.512 107.102 18.352V21.18C107.102 21.516 107.256 21.684 107.578 21.684H107.872ZM105.604 19.808H103.728C103.252 19.808 102.902 19.906 102.65 20.088C102.398 20.27 102.272 20.536 102.272 20.886C102.272 21.194 102.384 21.446 102.622 21.628C102.86 21.824 103.182 21.908 103.602 21.908C104.218 21.908 104.708 21.74 105.058 21.404C105.408 21.068 105.59 20.62 105.604 20.06V19.808ZM114.267 16.196C114.771 16.49 115.177 16.91 115.471 17.456C115.751 18.016 115.905 18.66 115.905 19.416C115.905 20.144 115.751 20.774 115.471 21.334C115.177 21.894 114.771 22.314 114.267 22.622C113.749 22.93 113.161 23.084 112.517 23.084C111.985 23.084 111.523 22.986 111.131 22.79C110.739 22.594 110.417 22.314 110.179 21.964L109.997 23H108.681V13.2H110.193V16.896C110.753 16.14 111.537 15.748 112.517 15.748C113.161 15.748 113.749 15.902 114.267 16.196ZM113.777 21.152C114.169 20.704 114.365 20.13 114.365 19.416C114.365 18.716 114.169 18.156 113.777 17.708C113.385 17.26 112.881 17.036 112.265 17.036C111.635 17.036 111.131 17.26 110.753 17.694C110.361 18.142 110.179 18.702 110.179 19.402C110.179 20.116 110.361 20.69 110.753 21.138C111.131 21.586 111.635 21.81 112.265 21.81C112.881 21.81 113.385 21.6 113.777 21.152ZM117.103 13.2H118.615V23H117.103V13.2ZM120.251 17.498C120.545 16.938 120.951 16.518 121.483 16.21C122.015 15.902 122.617 15.748 123.303 15.748C123.989 15.748 124.591 15.888 125.123 16.168C125.655 16.448 126.061 16.854 126.369 17.358C126.677 17.876 126.831 18.478 126.845 19.164C126.845 19.36 126.831 19.542 126.803 19.738H121.399V19.822C121.427 20.452 121.623 20.942 121.987 21.306C122.337 21.67 122.813 21.852 123.401 21.852C123.863 21.852 124.255 21.754 124.577 21.53C124.885 21.306 125.095 20.998 125.207 20.592H126.719C126.579 21.32 126.229 21.922 125.655 22.384C125.081 22.86 124.367 23.084 123.513 23.084C122.757 23.084 122.113 22.944 121.553 22.636C120.993 22.328 120.573 21.908 120.265 21.348C119.957 20.802 119.817 20.158 119.817 19.43C119.817 18.702 119.957 18.058 120.251 17.498ZM125.305 18.632C125.235 18.114 125.025 17.708 124.675 17.414C124.325 17.12 123.891 16.966 123.359 16.966C122.855 16.966 122.435 17.12 122.071 17.428C121.707 17.736 121.511 18.128 121.455 18.632H125.305ZM133.091 22.636C132.531 22.328 132.111 21.908 131.803 21.348C131.495 20.788 131.355 20.144 131.355 19.416C131.355 18.702 131.495 18.072 131.803 17.512C132.111 16.952 132.531 16.518 133.091 16.21C133.651 15.902 134.281 15.748 135.009 15.748C135.723 15.748 136.353 15.902 136.913 16.21C137.473 16.518 137.893 16.952 138.201 17.512C138.509 18.072 138.663 18.702 138.663 19.416C138.663 20.144 138.509 20.788 138.201 21.348C137.893 21.908 137.473 22.328 136.913 22.636C136.353 22.944 135.723 23.084 135.009 23.084C134.281 23.084 133.651 22.944 133.091 22.636ZM136.535 21.138C136.927 20.69 137.123 20.116 137.123 19.416C137.123 18.716 136.927 18.156 136.535 17.708C136.143 17.26 135.639 17.036 135.009 17.036C134.365 17.036 133.861 17.26 133.483 17.708C133.091 18.156 132.909 18.716 132.909 19.416C132.909 20.116 133.091 20.69 133.483 21.138C133.861 21.586 134.365 21.796 135.009 21.796C135.639 21.796 136.143 21.586 136.535 21.138ZM145.717 16.532C146.249 17.064 146.529 17.904 146.529 19.052V23H145.003V19.136C145.003 18.464 144.849 17.946 144.569 17.582C144.275 17.232 143.855 17.05 143.295 17.05C142.693 17.05 142.217 17.26 141.881 17.68C141.545 18.1 141.377 18.66 141.377 19.388V23H139.865V15.832H141.181L141.349 16.77C141.881 16.098 142.651 15.748 143.645 15.748C144.485 15.748 145.185 16.014 145.717 16.532Z" fill="white"/>
<path d="M77.8998 31C78.8998 31 79.7798 31.2 80.5398 31.58C81.2998 31.96 81.8998 32.5 82.3198 33.2C82.7398 33.92 82.9598 34.74 82.9598 35.66C82.9598 36.6 82.7398 37.42 82.3198 38.12C81.8998 38.82 81.2998 39.36 80.5398 39.74C79.7798 40.12 78.8998 40.3 77.8998 40.3H75.1998V45H72.1998V31H77.8998ZM75.1998 37.8H77.6198C78.3198 37.8 78.8798 37.62 79.2998 37.22C79.6998 36.84 79.9198 36.32 79.9198 35.66C79.9198 35 79.6998 34.48 79.2998 34.08C78.8798 33.7 78.3198 33.5 77.6198 33.5H75.1998V37.8ZM84.3812 31H87.2012V45H84.3812V31ZM99.2463 42.62V45H97.8063C96.5063 45 95.8663 44.44 95.9063 43.32C95.5263 43.92 95.0663 44.36 94.5263 44.66C93.9663 44.98 93.3063 45.12 92.5463 45.12C91.3863 45.12 90.4663 44.86 89.7663 44.34C89.0663 43.82 88.7263 43.06 88.7263 42.1C88.7263 41.02 89.1263 40.18 89.9263 39.58C90.7263 38.98 91.9063 38.68 93.4463 38.68H95.4863V38.18C95.4863 37.72 95.3063 37.36 94.9663 37.08C94.6063 36.8 94.1463 36.66 93.5663 36.66C93.0463 36.66 92.6063 36.78 92.2863 37C91.9463 37.24 91.7463 37.54 91.6863 37.92H88.9663C89.0463 36.88 89.5263 36.06 90.3663 35.48C91.2063 34.9 92.3063 34.6 93.7063 34.6C95.1463 34.6 96.2663 34.92 97.0663 35.56C97.8663 36.2 98.2663 37.14 98.2663 38.34V41.96C98.2663 42.22 98.3063 42.4 98.4263 42.48C98.5263 42.58 98.6863 42.62 98.9263 42.62H99.2463ZM95.4863 40.56H93.4263C92.8263 40.56 92.3663 40.68 92.0463 40.92C91.7263 41.16 91.5663 41.48 91.5663 41.9C91.5663 42.26 91.6863 42.56 91.9663 42.76C92.2463 42.98 92.6063 43.08 93.0863 43.08C93.8063 43.08 94.3863 42.88 94.8263 42.46C95.2463 42.04 95.4663 41.48 95.4863 40.76V40.56ZM101.946 34.72L104.446 42.1L106.886 34.72H109.906L105.346 46.46C105.106 47.1 104.866 47.58 104.666 47.94C104.446 48.3 104.166 48.56 103.846 48.74C103.526 48.92 103.106 49 102.586 49H99.8457V46.62H101.406C101.766 46.62 102.026 46.56 102.186 46.44C102.346 46.32 102.486 46.1 102.646 45.74L102.906 45.06L98.9457 34.72H101.946ZM118.345 40.44C118.385 41.14 118.665 41.7 119.185 42.12C119.705 42.54 120.385 42.74 121.245 42.74C121.945 42.74 122.525 42.6 122.965 42.3C123.405 42 123.645 41.58 123.645 41.04C123.645 40.68 123.505 40.38 123.265 40.16C123.025 39.94 122.665 39.76 122.225 39.64C121.785 39.52 121.085 39.36 120.165 39.16C119.245 39 118.465 38.78 117.845 38.5C117.205 38.22 116.705 37.82 116.305 37.28C115.905 36.74 115.725 36.02 115.725 35.12C115.725 34.32 115.945 33.58 116.385 32.94C116.825 32.3 117.445 31.8 118.245 31.44C119.045 31.08 119.945 30.88 120.945 30.88C121.965 30.88 122.885 31.08 123.705 31.46C124.525 31.84 125.165 32.36 125.645 33.02C126.125 33.7 126.365 34.44 126.385 35.28H123.445C123.365 34.68 123.125 34.2 122.685 33.84C122.245 33.48 121.665 33.28 120.945 33.28C120.265 33.28 119.745 33.42 119.345 33.7C118.945 33.98 118.745 34.38 118.745 34.9C118.745 35.28 118.865 35.58 119.105 35.78C119.345 35.98 119.685 36.16 120.125 36.28C120.565 36.4 121.245 36.56 122.165 36.72C123.085 36.9 123.885 37.12 124.525 37.38C125.165 37.64 125.665 38.04 126.065 38.56C126.465 39.08 126.665 39.78 126.665 40.66C126.665 41.52 126.425 42.28 125.965 42.96C125.485 43.64 124.845 44.16 124.005 44.54C123.165 44.94 122.245 45.12 121.205 45.12C120.085 45.12 119.085 44.92 118.205 44.52C117.325 44.12 116.645 43.54 116.165 42.82C115.665 42.1 115.405 41.3 115.405 40.4L118.345 40.44ZM128.865 37.1H127.165V34.72H128.865V31.84H131.685V34.72H134.025V37.1H131.685V41.6C131.685 41.96 131.745 42.22 131.905 42.38C132.065 42.54 132.325 42.62 132.685 42.62H134.145V45H131.805C129.845 45 128.865 44.02 128.865 42.06V37.1ZM137.297 44.48C136.477 44.04 135.837 43.42 135.397 42.62C134.957 41.82 134.737 40.9 134.737 39.86C134.737 38.82 134.957 37.9 135.397 37.1C135.837 36.3 136.477 35.7 137.297 35.26C138.117 34.82 139.077 34.6 140.157 34.6C141.237 34.6 142.177 34.82 142.997 35.26C143.817 35.7 144.457 36.3 144.897 37.1C145.337 37.9 145.577 38.82 145.577 39.86C145.577 40.92 145.337 41.84 144.897 42.64C144.457 43.44 143.817 44.04 142.997 44.48C142.177 44.92 141.237 45.12 140.157 45.12C139.077 45.12 138.117 44.92 137.297 44.48ZM142.017 42C142.477 41.46 142.717 40.74 142.717 39.86C142.717 38.98 142.477 38.28 142.017 37.72C141.557 37.18 140.937 36.9 140.157 36.9C139.377 36.9 138.757 37.18 138.297 37.72C137.837 38.28 137.617 38.98 137.617 39.86C137.617 40.74 137.837 41.46 138.297 42C138.757 42.56 139.377 42.82 140.157 42.82C140.937 42.82 141.557 42.56 142.017 42ZM153.349 34.72V37.28H152.229C151.429 37.28 150.829 37.52 150.469 38C150.089 38.48 149.909 39.14 149.909 39.96V45H147.089V34.72H149.649L149.909 36.26C150.209 35.76 150.589 35.38 151.049 35.12C151.489 34.86 152.109 34.72 152.869 34.72H153.349ZM154.477 37.1C154.917 36.3 155.517 35.7 156.297 35.26C157.077 34.82 157.977 34.6 159.017 34.6C160.057 34.6 160.957 34.82 161.757 35.22C162.557 35.62 163.177 36.2 163.617 36.94C164.057 37.68 164.297 38.54 164.317 39.54C164.317 39.9 164.277 40.22 164.237 40.5H156.777V40.58C156.837 41.34 157.077 41.92 157.497 42.34C157.897 42.78 158.477 42.98 159.197 42.98C159.757 42.98 160.237 42.86 160.617 42.62C160.997 42.38 161.257 42 161.377 41.52H164.157C164.037 42.2 163.777 42.82 163.377 43.36C162.957 43.92 162.417 44.34 161.737 44.66C161.057 44.98 160.277 45.12 159.397 45.12C158.237 45.12 157.257 44.92 156.417 44.48C155.577 44.06 154.937 43.46 154.497 42.66C154.057 41.86 153.837 40.94 153.837 39.88C153.837 38.82 154.037 37.9 154.477 37.1ZM161.497 38.66C161.397 38.04 161.137 37.56 160.717 37.22C160.297 36.88 159.777 36.7 159.137 36.7C158.517 36.7 157.997 36.88 157.577 37.24C157.157 37.6 156.917 38.06 156.837 38.66H161.497Z" fill="white"/>
</g>
<defs>
<filter id="filter0_b_6316_6561" x="-99.8137" y="-99.9998" width="388.813" height="258" filterUnits="userSpaceOnUse" color-interpolation-filters="sRGB">
<feFlood flood-opacity="0" result="BackgroundImageFix"/>
<feGaussianBlur in="BackgroundImageFix" stdDeviation="50"/>
<feComposite in2="SourceAlpha" operator="in" result="effect1_backgroundBlur_6316_6561"/>
<feBlend mode="normal" in="SourceGraphic" in2="effect1_backgroundBlur_6316_6561" result="shape"/>
</filter>
</defs>
</svg>
