<svg width="29" height="28" viewBox="0 0 29 28" fill="none" xmlns="http://www.w3.org/2000/svg">
<path d="M14.8235 0C7.09549 0 0.823486 6.272 0.823486 14C0.823486 21.728 7.09549 28 14.8235 28C22.5515 28 28.8235 21.728 28.8235 14C28.8235 6.272 22.5515 0 14.8235 0ZM21.3195 9.52C21.1095 11.732 20.1995 17.108 19.7375 19.586C19.5415 20.636 19.1495 20.986 18.7855 21.028C17.9735 21.098 17.3575 20.496 16.5735 19.978C15.3415 19.166 14.6415 18.662 13.4515 17.878C12.0655 16.968 12.9615 16.464 13.7595 15.652C13.9695 15.442 17.5535 12.18 17.6235 11.886C17.6332 11.8415 17.6319 11.7952 17.6197 11.7513C17.6075 11.7074 17.5848 11.6671 17.5535 11.634C17.4695 11.564 17.3575 11.592 17.2595 11.606C17.1335 11.634 15.1735 12.936 11.3515 15.512C10.7915 15.89 10.2875 16.086 9.83949 16.072C9.33549 16.058 8.38349 15.792 7.66949 15.554C6.78749 15.274 6.10149 15.12 6.15749 14.63C6.18549 14.378 6.53549 14.126 7.19349 13.86C11.2815 12.082 13.9975 10.906 15.3555 10.346C19.2475 8.722 20.0455 8.442 20.5775 8.442C20.6895 8.442 20.9555 8.47 21.1235 8.61C21.2635 8.722 21.3055 8.876 21.3195 8.988C21.3055 9.072 21.3335 9.324 21.3195 9.52Z" fill="white"/>
</svg>
